# xmcd
#
# Track frame offsets:
#	150
#	25852
#	45470
#	66757
#	86437
#	106712
#	137882
#	160150
#	183435
#	209167
#	231607
#	248570
#
# Disc length: 3574 seconds
#
# Revision: 0
# Processed by: cddbd v1.4PL0 Copyright (c) Steve Scherf et al.
# Submitted via: gmmusic 1.1.8
#
DISCID=a10df40c
DTITLE=Raoul V and etta and Soulfingers - Vabanque
DYEAR=1988
DGENRE=Soul
TTITLE0=Fancy Beat
TTITLE1=Bad Girl
TTITLE2=S.O.S. (Save Our Soul)
TTITLE3=Stop
TTITLE4=See The Lonely People
TTITLE5=Do It!
TTITLE6=Why Don't You Love Me Anymore
TTITLE7=Get On
TTITLE8=Real Lover
TTITLE9=Get On
TTITLE10=Do It!
TTITLE11=Bad Girl
EXTD=
EXTT0=
EXTT1=
EXTT2=
EXTT3=
EXTT4=
EXTT5=
EXTT6=
EXTT7=
EXTT8=
EXTT9=Dub
EXTT10=Airplayversion
EXTT11=Girls and Guitarversion
PLAYORDER=
